{"images":[{"uri":"texture_diffuse.png","name":"texture_diffuse.png"},{"uri":"texture_metallic.png","name":"texture_metallic.png"},{"uri":"texture_normal.png","name":"texture_normal.png"}],"accessors":[{"componentType":5126,"max":[0.6958180069923401,0.9526169896125793,0.6039599776268005],"bufferView":0,"count":18970,"type":"VEC3","min":[-0.6958249807357788,-0.9540200233459473,-0.6047390103340149],"byteOffset":0,"name":"Node-Mesh_0_positions"},{"componentType":5126,"bufferView":0,"count":18970,"type":"VEC3","byteOffset":12,"name":"Node-Mesh_0_normals"},{"componentType":5126,"bufferView":0,"count":18970,"type":"VEC2","byteOffset":24,"name":"Node-Mesh_0_texcoords"},{"componentType":5123,"bufferView":1,"count":99849,"type":"SCALAR","byteOffset":0,"name":"Node-Mesh_0_indices"}],"textures":[{"source":0,"sampler":0},{"source":1,"sampler":0},{"source":2,"sampler":0}],"buffers":[{"byteLength":806740,"uri":"a5319345f5e44408a7fde7a36cbd45dd.bin","name":"a5319345f5e44408a7fde7a36cbd45dd"}],"bufferViews":[{"byteLength":607040,"byteStride":32,"target":34962,"byteOffset":0,"buffer":0},{"byteLength":199700,"target":34963,"byteOffset":607040,"buffer":0}],"samplers":[{"magFilter":9729,"minFilter":9987}],"scene":0,"nodes":[{"name":"Node","translation":[0.0000034868717193603516,0.9540200233459473,0.00038951635360717773],"mesh":0}],"materials":[{"normalTexture":{"index":2},"pbrMetallicRoughness":{"metallicRoughnessTexture":{"index":1},"baseColorFactor":[1,1,1,1],"baseColorTexture":{"index":0},"metallicFactor":0.53},"extensions":{"KHR_materials_specular":{"specularFactor":0.3}},"name":"default"}],"scenes":[{"nodes":[0]}],"asset":{"generator":"CG美术之家","source":"https://www.cgmszj.com/model/109024.html","version":"2.0"},"meshes":[{"primitives":[{"mode":4,"indices":3,"material":0,"attributes":{"POSITION":0,"TEXCOORD_0":2,"NORMAL":1}}],"name":"Node-Mesh"}]}